<svg xmlns="http://www.w3.org/2000/svg" viewBox="0 0 128 128" role="img" aria-labelledby="title">
  <title id="title">White Knight</title>
  <ellipse cx="64" cy="108" rx="42" ry="10" fill="#94a3b8" opacity="0.25"/>

  <path d="M78 22c-14 4-29 14-38 30l10 8c-9 9-13 19-12 31h50c2-14-2-25-11-34l7-13c3-7 1-15-6-22Z" fill="#f8fafc" stroke="#111827" stroke-width="5" stroke-linejoin="round"/>
  <path d="M42 91h48l9 16H31l11-16Z" fill="#f8fafc" stroke="#111827" stroke-width="5" stroke-linejoin="round"/>
  <path d="M58 49c5-5 12-8 19-9" stroke="#e2e8f0" stroke-width="5" stroke-linecap="round" opacity="0.9"/>
  <circle cx="72" cy="38" r="3.4" fill="#111827"/>
  <path d="M41 52 29 62l18 4" fill="#f8fafc" stroke="#111827" stroke-width="5" stroke-linejoin="round"/>
</svg>
